#N canvas 472 205 1194 774 10;
#X obj 54 32 receive fromGUI;
#X obj 492 364 send toNetwork;
#X obj 54 63 list trim;
#X obj 561 443 receive fromNetwork;
#X obj 561 471 route list;
#X obj 655 710 send toGUI;
#X msg 655 660 list /P2Jcli_bypass \$1;
#X obj 54 95 route /OSCpp_1 /OSCpp_2 /OSCpp_3 /OSCpp_4 /OSCpp_5 /P2Jcli_bypass
/P2Jcli/dsp /P2Jcli/menu, f 104;
#X obj 812 55 loadbang;
#X obj 812 110 send toGUI;
#X obj 519 126 select 0 1;
#X msg 519 150 1;
#X msg 547 169 0;
#X obj 666 203 f;
#X msg 666 227 \$1;
#X obj 666 145 t b f b;
#X obj 666 178 delay 10;
#X msg 54 149 list /P2Jcli/0/pp 1 \$1;
#X msg 131 122 list /P2Jcli/0/pp 2 \$1;
#X msg 208 150 list /P2Jcli/0/pp 3 \$1;
#X msg 286 126 list /P2Jcli/0/pp 4 \$1;
#X msg 364 152 list /P2Jcli/0/pp 5 \$1;
#X msg 442 233 list /P2Jcli/0/cmd @bypass \$1;
#X msg 725 178 list /P2Jcli/0/cmd @closepatch 0;
#X msg 492 203 list /P2Jcli/0/cmd @dsp \$1;
#X msg 561 550 list /OSCpp_\$1 \$2;
#X msg 707 635 list /P2Jcli/dsp \$1;
#X obj 655 611 route @bypass @dsp;
#X msg 666 279 list /P2Jcli/0/cmd @openpatch pd/phase_vo.pd;
#X msg 694 304 list /P2Jcli/0/cmd @openpatch ./pd/rev_vo.pd;
#X obj 561 499 route /P2Jsrv/0/pp /P2Jsrv/0/cmd /P2Jsrv/0/labl /P2Jsrv/0/lab_t
, f 64;
#X obj 846 616 list prepend /lab_t;
#X obj 697 530 t list list;
#X obj 731 582 list prepend;
#X msg 783 556 /lab_\$1;
#X obj 697 556 list split 1;
#X text 785 524 Append a # to lab_ for "lab_#" labels \, then send
on the string, f 32;
#X text 865 639 Send a multi-element string to the title label;
#X text 874 53 Setup menu items;
#X text 760 251 Load patches;
#X text 138 73 pp Knobs = OSCpp_# appended;
#X msg 812 85 list /P2Jcli/menu Phaser Reverb3;
#X msg 79 271 list /nlab_1 \$1;
#X msg 96 295 list /nlab_2 \$1;
#X msg 119 319 list /nlab_3 \$1;
#X msg 134 343 list /nlab_4 \$1;
#X msg 156 366 list /nlab_5 \$1;
#X obj 96 400 send toGUI;
#X text 66 419 Update the number display labels;
#X obj 666 252 select 0 1;
#X connect 0 0 2 0;
#X connect 2 0 7 0;
#X connect 3 0 4 0;
#X connect 4 0 30 0;
#X connect 6 0 5 0;
#X connect 7 0 17 0;
#X connect 7 0 42 0;
#X connect 7 1 18 0;
#X connect 7 1 43 0;
#X connect 7 2 19 0;
#X connect 7 2 44 0;
#X connect 7 3 20 0;
#X connect 7 3 45 0;
#X connect 7 4 21 0;
#X connect 7 4 46 0;
#X connect 7 5 22 0;
#X connect 7 6 10 0;
#X connect 7 7 15 0;
#X connect 8 0 41 0;
#X connect 10 0 11 0;
#X connect 10 1 12 0;
#X connect 11 0 24 0;
#X connect 12 0 24 0;
#X connect 13 0 14 0;
#X connect 14 0 49 0;
#X connect 15 0 16 0;
#X connect 15 1 13 1;
#X connect 15 2 23 0;
#X connect 16 0 13 0;
#X connect 17 0 1 0;
#X connect 18 0 1 0;
#X connect 19 0 1 0;
#X connect 20 0 1 0;
#X connect 21 0 1 0;
#X connect 22 0 1 0;
#X connect 23 0 1 0;
#X connect 24 0 1 0;
#X connect 25 0 5 0;
#X connect 26 0 5 0;
#X connect 27 0 6 0;
#X connect 27 1 26 0;
#X connect 28 0 1 0;
#X connect 29 0 1 0;
#X connect 30 0 25 0;
#X connect 30 1 27 0;
#X connect 30 2 32 0;
#X connect 30 3 31 0;
#X connect 31 0 5 0;
#X connect 32 0 35 0;
#X connect 32 1 34 0;
#X connect 33 0 5 0;
#X connect 34 0 33 1;
#X connect 35 1 33 0;
#X connect 41 0 9 0;
#X connect 42 0 47 0;
#X connect 43 0 47 0;
#X connect 44 0 47 0;
#X connect 45 0 47 0;
#X connect 46 0 47 0;
#X connect 49 0 28 0;
#X connect 49 1 29 0;
