#N canvas 887 292 450 300 12;
#X obj 115 47 adc~ 1 2;
#X obj 115 99 dac~ 3 4;
#X obj 203 47 adc~ 3 4;
#X obj 203 99 dac~ 1 2;
#X connect 0 0 1 0;
#X connect 0 1 1 1;
#X connect 2 0 3 0;
#X connect 2 1 3 1;
