#N canvas 133 556 896 464 10;
#X obj 210 48 bendin, f 7;
#X obj 210 152 bendout, f 12;
#X obj 210 92 - 8192;
#X obj 301 136 pack f f;
#X msg 301 160 \$2 \$1;
#X obj 301 196 print Bend Data;
#X text 301 226 Don't do this for realtime data!!!;
#X connect 0 0 2 0;
#X connect 0 0 3 1;
#X connect 0 1 1 1;
#X connect 2 0 1 0;
#X connect 2 0 3 0;
#X connect 3 0 4 0;
#X connect 4 0 5 0;
