#N canvas 725 411 913 447 10;
#X obj 177 287 sysexin;
#X obj 257 288 midirealtimein;
#X obj 80 283 midiin;
#X obj 80 326 print midi;
#X obj 177 325 print sysex;
#X obj 257 327 print RT;
#X obj 99 101 param.get 1;
#X obj 484 141 param.get 3;
#X obj 609 282 param.get 4;
#X obj 632 79 param.get 6;
#X msg 632 123 pp 6 \$1;
#X obj 506 357 s hrlloBob;
#X obj 506 324 param.get 5;
#X msg 484 233 fname \$1;
#X msg 484 204 symbol /dgp/.AUCOP/guitarToyX/0.1.9/gtx_banks_1.txt
;
#X obj 484 175 t b;
#X text 573 356 --->;
#X obj 484 259 s P2Jos;
#X obj 632 149 s P2JoS;
#X obj 609 355 param.set 4 hrlloBob;
#X obj 99 171 s P2J;
#X msg 99 139 @quit;
#X text 484 41 These examples send OSC msgs;
#X text 89 65 send me a parameter pair (like "1 1") and pd2jack will
quit, f 38;
#X text 97 252 Echo midi port data to console;
#X connect 0 0 4 0;
#X connect 1 0 5 0;
#X connect 2 0 3 0;
#X connect 6 0 21 0;
#X connect 7 0 15 0;
#X connect 8 0 19 0;
#X connect 9 0 10 0;
#X connect 10 0 18 0;
#X connect 12 0 11 0;
#X connect 13 0 17 0;
#X connect 14 0 13 0;
#X connect 15 0 14 0;
#X connect 21 0 20 0;
