#N canvas 358 234 702 383 10;
#X obj 48 111 notein;
#X obj 48 146 noteout;
#X obj 120 111 ctlin;
#X obj 120 146 ctlout;
#X obj 258 111 touchin;
#X obj 331 111 polytouchin;
#X obj 192 111 bendin, f 7;
#X obj 192 164 bendout;
#X obj 258 146 touchout;
#X obj 331 146 polytouchout;
#X obj 428 113 pgmin;
#X obj 428 136 pgmout;
#X obj 192 137 - 8192;
#X text 198 192 ^ Read bendin / bendout help;
#X obj 207 229 sysexin;
#X obj 207 280 midiout;
#X obj 280 228 midirealtimein;
#X obj 280 285 midiout;
#X obj 134 279 midiout;
#X obj 134 229 midiin;
#X text 110 58 Echo all midi data input ports -> output ports;
#X connect 0 0 1 0;
#X connect 0 1 1 1;
#X connect 0 2 1 2;
#X connect 2 0 3 0;
#X connect 2 1 3 1;
#X connect 2 2 3 2;
#X connect 4 0 8 0;
#X connect 4 1 8 1;
#X connect 5 0 9 0;
#X connect 5 1 9 1;
#X connect 5 2 9 2;
#X connect 6 0 12 0;
#X connect 6 1 7 1;
#X connect 10 0 11 0;
#X connect 10 1 11 1;
#X connect 12 0 7 0;
#X connect 14 0 15 0;
#X connect 14 1 15 1;
#X connect 16 0 17 0;
#X connect 16 1 17 1;
#X connect 19 0 18 0;
#X connect 19 1 18 1;
