#N canvas 632 458 917 397 10;
#X obj 563 267 param.get 1;
#X msg 709 96 pp 6 \$1;
#X msg 92 270 fname \$1;
#X msg 92 247 symbol /dgp/.AUCOP/guitarToyX/0.1.9/gtx_banks_1.txt;
#X obj 92 218 t b;
#X obj 92 296 s P2Jos;
#X obj 709 122 s P2JoS;
#X obj 488 319 s P2J;
#X msg 488 293 @quit;
#X text 559 222 send me a parameter pair (like "1 1") and pd2jack will
quit, f 25;
#X obj 488 208 r quitP2J;
#X text 485 185 Send me a Bang and pd2jack will quit;
#X obj 92 192 r sendFName;
#X text 705 60 Same as helper absraction, f 16;
#X obj 622 51 f 2.43;
#X obj 622 104 param.set 6;
#X text 592 125 send with Helper;
#X text 621 25 Parameter Pair \, send to #6;
#X text 527 319 "P2P" obj for patch->cmd;
#X obj 257 70 param.get 5;
#X text 250 40 Receive param #5;
#X text 132 217 User-defined OSC send;
#X text 87 41 Send param #2;
#X obj 87 99 param.set 2;
#X obj 433 104 param.set 4 hello;
#X text 432 44 Set param #4 when param #5 sent to "hello", f 19;
#X text 314 105 --------------->;
#X obj 257 105 s hello;
#X text 90 324 'P2JoS': Symbols sent as Symbols;
#X text 146 298 'P2Jos': Symbols sent as strings;
#X obj 87 66 receive myFloatData;
#X connect 0 0 8 0;
#X connect 1 0 6 0;
#X connect 2 0 5 0;
#X connect 3 0 2 0;
#X connect 4 0 3 0;
#X connect 8 0 7 0;
#X connect 10 0 8 0;
#X connect 12 0 4 0;
#X connect 14 0 1 0;
#X connect 14 0 15 0;
#X connect 19 0 27 0;
#X connect 30 0 23 0;
