#N canvas 449 659 279 386 10;
#X obj 49 19 inlet;
#X obj 120 124 spigot 0;
#X obj 165 34 loadbang;
#X obj 165 102 f 1;
#X obj 49 288 s P2JoS;
#X obj 49 40 spigot \$1;
#X obj 120 12 receive \$2;
#X obj 49 225 pack f \$1;
#X msg 49 249 pp \$2 \$1;
#X obj 49 189 t f;
#X obj 165 57 symbol \$2;
#X obj 165 80 sel \$2;
#X connect 0 0 5 0;
#X connect 1 0 9 0;
#X connect 2 0 10 0;
#X connect 3 0 1 1;
#X connect 5 0 9 0;
#X connect 6 0 1 0;
#X connect 7 0 8 0;
#X connect 8 0 4 0;
#X connect 9 0 7 0;
#X connect 10 0 11 0;
#X connect 11 0 3 0;
