#N canvas 29 324 1092 645 10;
#X obj 435 319 adc~;
#X obj 193 256 *~ 2;
#X obj 192 286 +~ 2;
#X obj 282 319 *~ 2;
#X obj 283 342 +~ 2;
#X obj 339 493 delwrite~ phase2 100;
#X obj 283 375 vd~ phase2;
#X obj 284 265 wrap~;
#X obj 193 154 phasor~;
#X obj 284 241 +~ 0.5;
#X obj 194 228 cos~;
#X obj 283 288 cos~;
#X obj 191 320 vd~ phase1;
#X obj 286 520 delwrite~ phase1 100;
#X obj 193 198 clip~;
#X obj 336 158 + 1;
#X obj 336 135 * -1;
#X obj 336 108 + 0;
#X obj 193 127 + 0;
#X obj 42 226 + 0;
#X obj 193 104 * 10;
#X obj 336 85 * 0.33;
#X obj 43 205 * 3;
#X obj 47 359 * 1.8;
#X obj 47 382 - 0.9;
#X obj 190 433 *~ 0.5;
#X obj 283 435 *~ 0.5;
#X obj 499 290 r~ output1;
#X obj 199 349 s~ output1;
#X obj 297 402 s~ output2;
#X obj 530 319 r~ output2;
#X obj 500 404 *~;
#X obj 681 294 wrap;
#X obj 594 402 *~;
#X obj 531 404 *~;
#X obj 563 403 *~;
#X obj 609 244 * 0.5;
#X obj 670 268 * -0.5;
#X obj 670 241 + 0.001;
#X obj 607 269 + 0.001;
#X text 334 17 Clip #4 (0-1);
#X text 606 134 Stereo/Dual Mono #5 (0-1);
#X text 195 26 Speed #2 (0-1);
#X text 44 131 Depth #1 (0-1);
#X text 45 292 Feedback #3 (0-1);
#X obj 53 178 r Channel-C;
#X obj 43 152 param.get 1;
#X obj 60 335 r Channel-D;
#X obj 47 312 param.get 3;
#X obj 202 74 r Channel-A;
#X obj 193 49 param.get 2;
#X obj 347 60 r Channel-B;
#X obj 336 35 param.get 4;
#X obj 670 211 r Channel-E;
#X obj 609 157 param.get 5;
#X obj 762 285 loadbang;
#X msg 762 360 \; Channel-C 0.5 \; Channel-A 0.05 \; Channel-D 0.3
\; Channel-B 0 \; Channel-E 0.2 \;;
#X floatatom 87 36 5 0 0 0 - - -;
#X obj 674 476 r sendlabel;
#X obj 674 600 s P2Jos;
#X obj 694 525 r sendtitle;
#X obj 674 574 list trim;
#X obj 694 549 list prepend lab_t;
#X obj 674 499 list prepend labl;
#X msg 879 348 \; sendlabel 1 Depth \; sendlabel 2 Speed \; sendlabel
3 FeedBack \; sendlabel 4 Clipping \; sendlabel 5 Stereo/Mono Mix \;
sendtitle Phaser vo \;;
#X obj 78 209 param.set 1;
#X obj 86 363 param.set 3;
#X obj 226 100 param.set 2;
#X obj 390 89 param.set 4;
#X obj 726 242 param.set 5;
#X obj 514 463 *~ 0;
#X obj 562 462 *~ 0;
#X obj 672 403 line 0;
#X msg 672 377 1 500;
#X obj 514 497 dac~;
#X obj 762 316 delay 50;
#X text 506 598 Update client widget names;
#X text 879 327 Client Widget names;
#X text 766 341 Presets;
#X connect 0 0 13 0;
#X connect 0 0 31 0;
#X connect 0 0 34 0;
#X connect 0 1 5 0;
#X connect 0 1 33 0;
#X connect 0 1 35 0;
#X connect 1 0 2 0;
#X connect 2 0 12 0;
#X connect 3 0 4 0;
#X connect 4 0 6 0;
#X connect 6 0 26 0;
#X connect 6 0 29 0;
#X connect 7 0 11 0;
#X connect 8 0 14 0;
#X connect 9 0 7 0;
#X connect 10 0 1 0;
#X connect 11 0 3 0;
#X connect 12 0 25 0;
#X connect 12 0 28 0;
#X connect 14 0 10 0;
#X connect 14 0 9 0;
#X connect 15 0 14 2;
#X connect 16 0 15 0;
#X connect 17 0 14 1;
#X connect 17 0 16 0;
#X connect 18 0 8 0;
#X connect 19 0 4 1;
#X connect 19 0 3 1;
#X connect 19 0 2 1;
#X connect 19 0 1 1;
#X connect 20 0 18 0;
#X connect 21 0 17 0;
#X connect 22 0 19 0;
#X connect 23 0 24 0;
#X connect 24 0 25 1;
#X connect 24 0 26 1;
#X connect 25 0 13 0;
#X connect 26 0 5 0;
#X connect 27 0 31 0;
#X connect 27 0 35 0;
#X connect 30 0 33 0;
#X connect 30 0 34 0;
#X connect 31 0 70 0;
#X connect 32 0 31 1;
#X connect 32 0 33 1;
#X connect 33 0 71 0;
#X connect 34 0 70 0;
#X connect 35 0 71 0;
#X connect 36 0 39 0;
#X connect 37 0 32 0;
#X connect 38 0 37 0;
#X connect 39 0 34 1;
#X connect 39 0 35 1;
#X connect 45 0 22 0;
#X connect 45 0 65 0;
#X connect 46 0 22 0;
#X connect 47 0 23 0;
#X connect 47 0 66 0;
#X connect 48 0 23 0;
#X connect 49 0 20 0;
#X connect 49 0 67 0;
#X connect 50 0 20 0;
#X connect 51 0 21 0;
#X connect 51 0 68 0;
#X connect 52 0 21 0;
#X connect 53 0 38 0;
#X connect 53 0 36 0;
#X connect 53 0 69 0;
#X connect 54 0 36 0;
#X connect 54 0 38 0;
#X connect 55 0 73 0;
#X connect 55 0 75 0;
#X connect 57 0 67 0;
#X connect 58 0 63 0;
#X connect 60 0 62 0;
#X connect 61 0 59 0;
#X connect 62 0 61 0;
#X connect 63 0 61 0;
#X connect 70 0 74 0;
#X connect 71 0 74 1;
#X connect 72 0 71 1;
#X connect 72 0 70 1;
#X connect 73 0 72 0;
#X connect 75 0 56 0;
#X connect 75 0 64 0;
