#N canvas 821 273 998 700 10;
#X obj 447 379 adc~;
#X obj 551 507 dac~;
#X obj 193 256 *~ 2;
#X obj 192 286 +~ 2;
#X obj 282 319 *~ 2;
#X obj 283 342 +~ 2;
#X obj 333 533 delwrite~ phase2 100;
#X obj 283 375 vd~ phase2;
#X obj 284 265 wrap~;
#X obj 193 154 phasor~;
#X obj 284 241 +~ 0.5;
#X obj 194 228 cos~;
#X obj 283 288 cos~;
#X obj 191 320 vd~ phase1;
#X obj 280 560 delwrite~ phase1 100;
#X obj 193 198 clip~;
#X obj 336 158 + 1;
#X obj 336 135 * -1;
#X obj 336 108 + 0;
#X obj 193 127 + 0;
#X obj 42 226 + 0;
#X obj 193 104 * 10;
#X obj 336 85 * 0.33;
#X obj 43 205 * 3;
#X obj 47 359 * 1.8;
#X obj 47 382 - 0.9;
#X obj 190 433 *~ 0.5;
#X obj 283 435 *~ 0.5;
#X obj 511 350 r~ output1;
#X obj 199 349 s~ output1;
#X obj 297 402 s~ output2;
#X obj 542 379 r~ output2;
#X obj 512 464 *~;
#X obj 700 386 wrap;
#X obj 606 462 *~;
#X obj 543 464 *~;
#X obj 575 463 *~;
#X obj 628 336 * 0.5;
#X obj 689 360 * -0.5;
#X obj 689 333 + 0.001;
#X obj 626 361 + 0.001;
#X text 334 17 Clip #4 (0-1);
#X text 625 255 Stereo/Dual Mono #5 (0-1);
#X text 195 26 Speed #2 (0-1);
#X text 44 131 Depth #1 (0-1);
#X text 45 292 Feedback #3 (0-1);
#X obj 53 178 r Channel-C;
#X obj 43 152 param.get 1;
#X obj 60 335 r Channel-D;
#X obj 47 312 param.get 3;
#X obj 202 74 r Channel-A;
#X obj 193 49 param.get 2;
#X obj 347 60 r Channel-B;
#X obj 336 35 param.get 4;
#X obj 689 303 r Channel-E;
#X obj 628 278 param.get 5;
#X obj 542 30 loadbang;
#X msg 542 63 \; Channel-C 0.5 \; Channel-A 0.05 \; Channel-D 0.3 \;
Channel-B 0.25 \; Channel-E 0.2 \;;
#X connect 0 0 14 0;
#X connect 0 0 32 0;
#X connect 0 0 35 0;
#X connect 0 1 6 0;
#X connect 0 1 34 0;
#X connect 0 1 36 0;
#X connect 2 0 3 0;
#X connect 3 0 13 0;
#X connect 4 0 5 0;
#X connect 5 0 7 0;
#X connect 7 0 27 0;
#X connect 7 0 30 0;
#X connect 8 0 12 0;
#X connect 9 0 15 0;
#X connect 10 0 8 0;
#X connect 11 0 2 0;
#X connect 12 0 4 0;
#X connect 13 0 26 0;
#X connect 13 0 29 0;
#X connect 15 0 11 0;
#X connect 15 0 10 0;
#X connect 16 0 15 2;
#X connect 17 0 16 0;
#X connect 18 0 15 1;
#X connect 18 0 17 0;
#X connect 19 0 9 0;
#X connect 20 0 5 1;
#X connect 20 0 4 1;
#X connect 20 0 3 1;
#X connect 20 0 2 1;
#X connect 21 0 19 0;
#X connect 22 0 18 0;
#X connect 23 0 20 0;
#X connect 24 0 25 0;
#X connect 25 0 26 1;
#X connect 25 0 27 1;
#X connect 26 0 14 0;
#X connect 27 0 6 0;
#X connect 28 0 32 0;
#X connect 28 0 36 0;
#X connect 31 0 34 0;
#X connect 31 0 35 0;
#X connect 32 0 1 0;
#X connect 33 0 32 1;
#X connect 33 0 34 1;
#X connect 34 0 1 1;
#X connect 35 0 1 0;
#X connect 36 0 1 1;
#X connect 37 0 40 0;
#X connect 38 0 33 0;
#X connect 39 0 38 0;
#X connect 40 0 35 1;
#X connect 40 0 36 1;
#X connect 46 0 23 0;
#X connect 47 0 23 0;
#X connect 48 0 24 0;
#X connect 49 0 24 0;
#X connect 50 0 21 0;
#X connect 51 0 21 0;
#X connect 52 0 22 0;
#X connect 53 0 22 0;
#X connect 54 0 39 0;
#X connect 54 0 37 0;
#X connect 55 0 37 0;
#X connect 55 0 39 0;
#X connect 56 0 57 0;
