#N canvas 810 478 598 342 12;
#X obj 123 180 midiout;
#X obj 111 59 metro 5000;
#X obj 111 28 tgl 15 0 empty empty empty 17 7 0 10 -262144 -1 -1 1
1;
#X obj 85 141 bng 15 250 50 0 empty empty empty 17 7 0 10 -262144 -1
-1;
#X msg 181 126 1;
#X msg 111 91 251;
#X connect 1 0 5 0;
#X connect 2 0 1 0;
#X connect 4 0 0 1;
#X connect 5 0 0 0;
#X connect 5 0 3 0;
