#N canvas 597 178 455 313 10;
#X obj 160 244 dac~;
#X obj 160 72 adc~;
#X obj 313 31 loadbang;
#X obj 159 164 rev3~, f 18;
#X obj 45 163 *~ 0.5;
#X obj 95 163 *~ 0.5;
#X msg 314 66 90;
#X msg 335 89 95;
#X obj 201 16 param.get 1;
#X obj 222 43 param.get 2;
#X obj 78 40 param.get 3;
#X msg 366 109 35;
#X connect 1 0 3 0;
#X connect 1 0 4 0;
#X connect 1 1 3 1;
#X connect 1 1 5 0;
#X connect 2 0 6 0;
#X connect 2 0 7 0;
#X connect 2 0 11 0;
#X connect 3 0 0 0;
#X connect 3 1 0 1;
#X connect 3 2 0 0;
#X connect 3 3 0 1;
#X connect 4 0 0 0;
#X connect 5 0 0 1;
#X connect 6 0 3 2;
#X connect 7 0 3 3;
#X connect 8 0 3 2;
#X connect 9 0 3 3;
#X connect 10 0 5 1;
#X connect 10 0 4 1;
#X connect 11 0 3 5;
