#N canvas 665 395 710 404 10;
#X obj 230 117 adc~;
#X obj 490 104 loadbang;
#X obj 229 185 rev3~, f 18;
#X obj 78 232 *~ 0.5;
#X obj 128 232 *~ 0.5;
#X msg 431 99 90;
#X msg 435 123 95;
#X obj 271 20 param.get 1;
#X obj 292 47 param.get 2;
#X obj 313 77 param.get 3;
#X obj 334 104 param.get 4;
#X obj 230 279 *~ 0.5;
#X obj 280 279 *~ 0.5;
#X obj 228 331 dac~;
#X msg 448 170 20;
#X msg 439 147 2200;
#X obj 123 129 / 100;
#X obj 123 97 param.get 5;
#X obj 85 164 - 1;
#X obj 85 189 abs;
#X obj 513 236 > 105;
#X obj 513 283 sel 1;
#X obj 513 261 change;
#X obj 376 309 sel 1;
#X obj 376 287 change;
#X obj 513 339 print Warning;
#X msg 513 312 High Levels;
#X obj 376 262 > 99;
#X obj 376 365 print Note;
#X msg 376 338 High feedback level;
#X connect 0 0 2 0;
#X connect 0 0 3 0;
#X connect 0 1 2 1;
#X connect 0 1 4 0;
#X connect 1 0 5 0;
#X connect 1 0 6 0;
#X connect 1 0 14 0;
#X connect 1 0 15 0;
#X connect 2 0 11 0;
#X connect 2 1 12 0;
#X connect 2 2 11 0;
#X connect 2 3 12 0;
#X connect 3 0 13 0;
#X connect 4 0 13 1;
#X connect 5 0 2 2;
#X connect 6 0 2 3;
#X connect 7 0 2 2;
#X connect 7 0 27 0;
#X connect 8 0 2 3;
#X connect 8 0 20 0;
#X connect 9 0 2 4;
#X connect 10 0 2 5;
#X connect 11 0 13 0;
#X connect 12 0 13 1;
#X connect 14 0 2 5;
#X connect 15 0 2 4;
#X connect 16 0 18 0;
#X connect 16 0 12 1;
#X connect 16 0 11 1;
#X connect 17 0 16 0;
#X connect 18 0 19 0;
#X connect 19 0 3 1;
#X connect 19 0 4 1;
#X connect 20 0 22 0;
#X connect 21 0 26 0;
#X connect 22 0 21 0;
#X connect 23 0 29 0;
#X connect 24 0 23 0;
#X connect 26 0 25 0;
#X connect 27 0 24 0;
#X connect 29 0 28 0;
