#N canvas 846 163 873 499 10;
#X obj 230 190 adc~;
#X obj 229 290 rev3~, f 18;
#X obj 78 337 *~ 0.5;
#X obj 128 337 *~ 0.5;
#X obj 230 384 *~ 0.5;
#X obj 280 384 *~ 0.5;
#X obj 111 204 param.get 5;
#X obj 111 256 - 1;
#X obj 111 281 abs;
#X obj 574 67 loadbang;
#X obj 716 262 r sendlabel;
#X obj 716 346 s P2Jos;
#X obj 271 82 * 100;
#X obj 271 51 param.get 1;
#X obj 292 109 param.get 2;
#X obj 313 163 param.get 3;
#X obj 334 212 param.get 4;
#X obj 292 135 * 100;
#X obj 334 234 * 100;
#X obj 313 186 * 10000;
#X obj 585 263 r sendtitle;
#X obj 381 121 sendOSC pp 3;
#X obj 180 45 sendOSC pp 1;
#X obj 365 59 sendOSC pp 2;
#X obj 408 177 sendOSC pp 4;
#X obj 53 205 r ChanE;
#X obj 24 266 sendOSC pp 5;
#X obj 180 22 r ChanA;
#X obj 365 36 r ChanB;
#X obj 381 98 r ChanC;
#X obj 408 154 r ChanD;
#X text 621 369 "P2Jos" sends symbol as string "P2JoS" sends symbol
as symbol, f 30;
#X obj 716 321 list trim;
#X obj 585 291 list prepend lab_t;
#X obj 716 288 list prepend labl;
#X obj 232 457 dac~;
#X obj 231 415 *~ 0;
#X obj 279 414 *~ 0;
#X obj 368 373 line 0;
#X msg 368 341 1 500;
#X obj 574 98 delay 50;
#X msg 668 129 \; sendlabel 1 Level \; sendlabel 2 Depth \; sendlabel
3 Xover (x10K) \; sendlabel 4 Damping \; sendlabel 5 Dry/Wet Mix \;
sendtitle Reverb #3 \;;
#X msg 574 133 \; ChanA 0.99 \; ChanB 0.86 \; ChanC 0.2 \; ChanD 0.3
\; ChanE 0.25 \;;
#X connect 0 0 1 0;
#X connect 0 0 2 0;
#X connect 0 1 1 1;
#X connect 0 1 3 0;
#X connect 1 0 4 0;
#X connect 1 1 5 0;
#X connect 1 2 4 0;
#X connect 1 3 5 0;
#X connect 2 0 36 0;
#X connect 3 0 37 0;
#X connect 4 0 36 0;
#X connect 5 0 37 0;
#X connect 6 0 7 0;
#X connect 6 0 5 1;
#X connect 6 0 4 1;
#X connect 7 0 8 0;
#X connect 8 0 2 1;
#X connect 8 0 3 1;
#X connect 9 0 39 0;
#X connect 9 0 40 0;
#X connect 10 0 34 0;
#X connect 12 0 1 2;
#X connect 13 0 12 0;
#X connect 14 0 17 0;
#X connect 15 0 19 0;
#X connect 16 0 18 0;
#X connect 17 0 1 3;
#X connect 18 0 1 5;
#X connect 19 0 1 4;
#X connect 20 0 33 0;
#X connect 25 0 7 0;
#X connect 25 0 5 1;
#X connect 25 0 4 1;
#X connect 25 0 26 0;
#X connect 27 0 12 0;
#X connect 27 0 22 0;
#X connect 28 0 17 0;
#X connect 28 0 23 0;
#X connect 29 0 21 0;
#X connect 29 0 19 0;
#X connect 30 0 24 0;
#X connect 30 0 18 0;
#X connect 32 0 11 0;
#X connect 33 0 32 0;
#X connect 34 0 32 0;
#X connect 36 0 35 0;
#X connect 37 0 35 1;
#X connect 38 0 37 1;
#X connect 38 0 36 1;
#X connect 39 0 38 0;
#X connect 40 0 42 0;
#X connect 40 0 41 0;
