#N canvas 753 413 574 460 10;
#X obj 49 19 inlet;
#X obj 49 189 t f b;
#X obj 120 124 spigot 0;
#X obj 165 34 loadbang;
#X obj 165 102 f 1;
#X obj 49 40 spigot \$2;
#X obj 120 12 receive \$3;
#X obj 165 57 symbol \$3;
#X obj 165 80 sel \$3;
#X obj 80 233 symbol \$1;
#X msg 80 260 symbol \$1;
#X obj 49 295 pack f s \$2;
#X msg 49 319 \$2 \$3 \$1;
#X obj 49 358 s P2JoS;
#X connect 0 0 5 0;
#X connect 1 0 11 0;
#X connect 1 1 9 0;
#X connect 2 0 1 0;
#X connect 3 0 7 0;
#X connect 4 0 2 1;
#X connect 5 0 1 0;
#X connect 6 0 2 0;
#X connect 7 0 8 0;
#X connect 8 0 4 0;
#X connect 9 0 10 0;
#X connect 10 0 11 1;
#X connect 11 0 12 0;
#X connect 12 0 13 0;
