#N canvas 638 571 400 329 10;
#X obj 93 104 list store;
#X obj 150 66 inlet;
#X obj 93 156 s P2JoS;
#X obj 93 66 t b;
#X obj 93 129 list trim;
#X obj 36 42 route list;
#X obj 36 16 inlet;
#X connect 0 0 4 0;
#X connect 1 0 0 1;
#X connect 3 0 0 0;
#X connect 4 0 2 0;
#X connect 5 0 2 0;
#X connect 5 1 3 0;
#X connect 6 0 5 0;
