#N canvas 777 353 1027 641 12;
#X obj 112 168 notein 1;
#X obj 112 193 mtof;
#X obj 111 312 *~;
#X obj 165 256 line~;
#X obj 165 206 / 127;
#X obj 165 231 pack 0 100;
#X obj 271 186 mtof;
#X obj 270 305 *~;
#X obj 331 249 line~;
#X obj 331 199 / 127;
#X obj 331 224 pack 0 100;
#X obj 112 218 osc~;
#X obj 271 211 phasor~;
#X obj 271 161 notein 17;
#X text 109 115 Midi in #1: chan 1 \, port 1, f 15;
#X text 267 114 Midi in #2: chan 1 \, port 2, f 14;
#X text 114 52 Simple demonstration of utility of more than one MIDI
input. Pd's internal Midi input channel #s are multiples of 16: 1-16
\, 17-32 \, 33-48 \, etc.;
#X obj 453 265 phasor~ 0;
#X obj 453 241 + 0.2;
#X obj 434 295 -~;
#X obj 434 209 phasor~;
#X obj 434 178 mtof;
#X text 520 154 Midi in #3: chan 1 \, port 3, f 14;
#X text 409 110 CLASSICAL PULSE WIDTH MODULATION J03.pulse.width.mod.pd
, f 32;
#X obj 434 323 *~;
#X obj 531 281 line~;
#X obj 531 231 / 127;
#X obj 531 256 pack 0 100;
#X obj 237 360 dac~ 1 2 3;
#X obj 434 153 notein 33;
#X text 119 413 Invoke: ./pd2jack -m 3:0 -a 0:3 -p ./pd/synths.pd;
#X text 105 438 (From the build dir \, if pd2jack isn't installed system-wide)
;
#X connect 0 0 1 0;
#X connect 0 1 4 0;
#X connect 1 0 11 0;
#X connect 2 0 28 0;
#X connect 3 0 2 1;
#X connect 4 0 5 0;
#X connect 5 0 3 0;
#X connect 6 0 12 0;
#X connect 7 0 28 1;
#X connect 8 0 7 1;
#X connect 9 0 10 0;
#X connect 10 0 8 0;
#X connect 11 0 2 0;
#X connect 12 0 7 0;
#X connect 13 0 6 0;
#X connect 13 1 9 0;
#X connect 17 0 19 1;
#X connect 18 0 17 0;
#X connect 19 0 24 0;
#X connect 20 0 19 0;
#X connect 21 0 20 0;
#X connect 21 0 18 0;
#X connect 24 0 28 2;
#X connect 25 0 24 1;
#X connect 26 0 27 0;
#X connect 27 0 25 0;
#X connect 29 0 21 0;
#X connect 29 1 26 0;
