#N canvas 552 283 1174 679 12;
#X obj 130 379 midiout;
#X obj 130 259 metro 5000;
#X obj 130 228 tgl 15 0 empty empty empty 17 7 0 10 -262144 -1 -1 0
1;
#X obj 107 344 bng 15 250 50 0 empty empty empty 17 7 0 10 -262144
-1 -1;
#X msg 176 333 1;
#X obj 122 490 midiout;
#X msg 122 458 240 42 40 0 3 4 5 6 7 8 1 3 0 50 40 0 247;
#X obj 749 353 midiout;
#X obj 654 477 midiout;
#X text 652 419 song select;
#X msg 654 445 243 8;
#X obj 572 244 midiout;
#X obj 572 143 tgl 25 0 empty \$0-TClkSwitch On/Off -2 -10 0 12 -262144
-1 -1 0 1;
#X msg 618 217 1;
#X obj 572 174 metro 200;
#X msg 572 206 248;
#X text 559 101 Timing Clock;
#X obj 130 311 f 246;
#X text 308 94 Tune Req;
#X msg 275 93 246;
#X msg 275 119 248;
#X msg 275 145 250;
#X msg 275 171 251;
#X text 308 120 Timing Clk;
#X text 308 146 Start;
#X text 308 172 Continue;
#X msg 275 196 252;
#X text 308 197 Stop;
#X msg 275 221 254;
#X msg 275 246 255;
#X text 308 222 Active Sensing;
#X text 308 247 Reset;
#X floatatom 240 271 5 0 0 0 - - -;
#X text 118 168 Send a test one-byte msg every 5 sec, f 13;
#X msg 749 321 242 30 0;
#X obj 655 353 midiout;
#X msg 655 321 242 0 48;
#X obj 692 112 hsl 128 15 14 40 0 0 empty \$0-clkSpeed <-_fast_--_slow_->
-2 -8 0 10 -262144 -1 -1 0 0;
#X floatatom 689 140 5 0 0 0 - - -;
#X obj 568 479 midiout;
#X msg 568 447 255;
#X text 566 421 RESET;
#X obj 569 354 midiout;
#X msg 569 322 242 1 0;
#X text 574 289 Song Position examples;
#X text 124 425 sysex test;
#X text 97 13 Some simple MIDI tests for pd2jack;
#X text 376 18 Intended to be run from Pure Data \, fed into pd2jack
midi port (with the mirroring patch "inout.pd" loaded.);
#X connect 1 0 17 0;
#X connect 2 0 1 0;
#X connect 4 0 0 1;
#X connect 6 0 5 0;
#X connect 10 0 8 0;
#X connect 12 0 14 0;
#X connect 13 0 11 1;
#X connect 14 0 15 0;
#X connect 15 0 11 0;
#X connect 17 0 0 0;
#X connect 17 0 3 0;
#X connect 19 0 32 0;
#X connect 20 0 32 0;
#X connect 21 0 32 0;
#X connect 22 0 32 0;
#X connect 26 0 32 0;
#X connect 28 0 32 0;
#X connect 29 0 32 0;
#X connect 32 0 17 1;
#X connect 34 0 7 0;
#X connect 36 0 35 0;
#X connect 37 0 38 0;
#X connect 37 0 14 1;
#X connect 40 0 39 0;
#X connect 43 0 42 0;
